<svg xmlns="http://www.w3.org/2000/svg" width="900" height="900" viewBox="0 0 900 900" role="img" aria-label="Frasco Nível 3">
  <defs>
    <linearGradient id="bg" x1="0%" y1="0%" x2="100%" y2="100%">
      <stop offset="0%" stop-color="#fdfaf5"/>
      <stop offset="100%" stop-color="#eef4f0"/>
    </linearGradient>
    <linearGradient id="capsuleTop" x1="0%" y1="0%" x2="100%" y2="100%">
      <stop offset="0%" stop-color="#dd8a3a"/>
      <stop offset="100%" stop-color="#c76a28"/>
    </linearGradient>
    <linearGradient id="capsuleBottom" x1="0%" y1="0%" x2="100%" y2="100%">
      <stop offset="0%" stop-color="#f0b37a"/>
      <stop offset="100%" stop-color="#dd8a3a"/>
    </linearGradient>
    <filter id="shadow" x="-20%" y="-20%" width="140%" height="140%">
      <feDropShadow dx="0" dy="18" stdDeviation="24" flood-color="#1e2820" flood-opacity=".18"/>
    </filter>
  </defs>
  <rect width="900" height="900" rx="56" fill="url(#bg)"/>
  <circle cx="190" cy="180" r="130" fill="#dd8a3a" opacity=".10"/>
  <circle cx="720" cy="710" r="170" fill="#c76a28" opacity=".10"/>
  <g filter="url(#shadow)">
    <rect x="305" y="170" width="290" height="540" rx="145" fill="#ffffff" opacity=".55"/>
    <rect x="305" y="170" width="290" height="270" rx="145" fill="url(#capsuleTop)"/>
    <rect x="305" y="440" width="290" height="270" rx="145" fill="url(#capsuleBottom)"/>
    <rect x="305" y="425" width="290" height="30" fill="#ffffff" opacity=".35"/>
    <ellipse cx="395" cy="315" rx="42" ry="88" fill="#ffffff" opacity=".28"/>
  </g>
  <g transform="translate(450 790)">
    <rect x="-135" y="-38" width="270" height="76" rx="38" fill="#ffffff" opacity=".88"/>
    <text x="0" y="12" text-anchor="middle" font-family="Cormorant Garamond, Georgia, serif" font-size="44" font-weight="600" fill="#1e2820">Nível 3</text>
  </g>
  <text x="450" y="110" text-anchor="middle" font-family="DM Sans, Arial, sans-serif" font-size="20" fill="#3d4a42" letter-spacing="3">Frasco Nível 3</text>
</svg>